<?xml version="1.0" encoding="UTF-8" standalone="no"?>
<!DOCTYPE svg PUBLIC "-//W3C//DTD SVG 1.1//EN"
 "http://www.w3.org/Graphics/SVG/1.1/DTD/svg11.dtd">
<!-- Generated by graphviz version 2.42.4 (0)
 -->
<!-- Title: G Pages: 1 -->
<svg width="1118pt" height="234pt"
 viewBox="0.00 0.00 1118.00 234.00" xmlns="http://www.w3.org/2000/svg" xmlns:xlink="http://www.w3.org/1999/xlink">
<g id="graph0" class="graph" transform="scale(1 1) rotate(0) translate(18 216)">
<title>G</title>
<polygon fill="white" stroke="transparent" points="-18,18 -18,-216 1100,-216 1100,18 -18,18"/>
<!-- d -->
<g id="node1" class="node">
<title>d</title>
<path fill="#eff4f8" stroke="#507085" d="M100,-55C100,-55 12,-55 12,-55 6,-55 0,-49 0,-43 0,-43 0,-25 0,-25 0,-19 6,-13 12,-13 12,-13 100,-13 100,-13 106,-13 112,-19 112,-25 112,-25 112,-43 112,-43 112,-49 106,-55 100,-55"/>
<text text-anchor="middle" x="56" y="-37.2" font-family="DejaVu Sans" font-size="11.00">Contributor lots</text>
<text text-anchor="middle" x="56" y="-25.2" font-family="DejaVu Sans" font-size="11.00">Own refund keys</text>
</g>
<!-- q -->
<g id="node2" class="node">
<title>q</title>
<path fill="#eff4f8" stroke="#507085" d="M282,-112C282,-112 165,-112 165,-112 159,-112 153,-106 153,-100 153,-100 153,-82 153,-82 153,-76 159,-70 165,-70 165,-70 282,-70 282,-70 288,-70 294,-76 294,-82 294,-82 294,-100 294,-100 294,-106 288,-112 282,-112"/>
<text text-anchor="middle" x="223.5" y="-94.2" font-family="DejaVu Sans" font-size="11.00">Council acceptance</text>
<text text-anchor="middle" x="223.5" y="-82.2" font-family="DejaVu Sans" font-size="11.00">Exact reviewed award</text>
</g>
<!-- d&#45;&gt;q -->
<g id="edge1" class="edge">
<title>d&#45;&gt;q</title>
<path fill="none" stroke="#507085" d="M112.11,-52.98C124.82,-57.36 138.52,-62.08 151.79,-66.65"/>
<polygon fill="#507085" stroke="#507085" points="150.76,-70 161.36,-69.94 153.04,-63.38 150.76,-70"/>
</g>
<!-- r -->
<g id="node7" class="node">
<title>r</title>
<path fill="#fff2dd" stroke="#507085" d="M906,-42C906,-42 797,-42 797,-42 791,-42 785,-36 785,-30 785,-30 785,-12 785,-12 785,-6 791,0 797,0 797,0 906,0 906,0 912,0 918,-6 918,-12 918,-12 918,-30 918,-30 918,-36 912,-42 906,-42"/>
<text text-anchor="middle" x="851.5" y="-24.2" font-family="DejaVu Sans" font-size="11.00">Unspent matured lot</text>
<text text-anchor="middle" x="851.5" y="-12.2" font-family="DejaVu Sans" font-size="11.00">Contributor refund</text>
</g>
<!-- d&#45;&gt;r -->
<g id="edge7" class="edge">
<title>d&#45;&gt;r</title>
<path fill="none" stroke="#507085" d="M112.17,-33.1C251.11,-30.82 615.65,-24.85 774.59,-22.24"/>
<polygon fill="#507085" stroke="#507085" points="774.82,-25.74 784.76,-22.08 774.7,-18.74 774.82,-25.74"/>
<text text-anchor="middle" x="360" y="-32.8" font-family="DejaVu Sans" font-size="9.00">no successful award</text>
</g>
<!-- p -->
<g id="node3" class="node">
<title>p</title>
<path fill="#dcebe7" stroke="#507085" d="M753,-198C753,-198 632,-198 632,-198 626,-198 620,-192 620,-186 620,-186 620,-168 620,-168 620,-162 626,-156 632,-156 632,-156 753,-156 753,-156 759,-156 765,-162 765,-168 765,-168 765,-186 765,-186 765,-192 759,-198 753,-198"/>
<text text-anchor="middle" x="692.5" y="-180.2" font-family="DejaVu Sans" font-size="11.00">Public model</text>
<text text-anchor="middle" x="692.5" y="-168.2" font-family="DejaVu Sans" font-size="11.00">Direct winner payment</text>
</g>
<!-- q&#45;&gt;p -->
<g id="edge2" class="edge">
<title>q&#45;&gt;p</title>
<path fill="none" stroke="#507085" d="M287.74,-112.08C296.5,-114.62 305.44,-117.01 314,-119 414.76,-142.36 532.9,-158.79 609.82,-168.06"/>
<polygon fill="#507085" stroke="#507085" points="609.58,-171.55 619.92,-169.26 610.41,-164.6 609.58,-171.55"/>
</g>
<!-- s -->
<g id="node4" class="node">
<title>s</title>
<path fill="#eff4f8" stroke="#507085" d="M588,-112C588,-112 438,-112 438,-112 432,-112 426,-106 426,-100 426,-100 426,-82 426,-82 426,-76 432,-70 438,-70 438,-70 588,-70 588,-70 594,-70 600,-76 600,-82 600,-82 600,-100 600,-100 600,-106 594,-112 588,-112"/>
<text text-anchor="middle" x="513" y="-94.2" font-family="DejaVu Sans" font-size="11.00">Sealed model</text>
<text text-anchor="middle" x="513" y="-82.2" font-family="DejaVu Sans" font-size="11.00">Stage per&#45;lot SHA256 HTLCs</text>
</g>
<!-- q&#45;&gt;s -->
<g id="edge4" class="edge">
<title>q&#45;&gt;s</title>
<path fill="none" stroke="#507085" d="M294.1,-91C330.63,-91 375.97,-91 415.82,-91"/>
<polygon fill="#507085" stroke="#507085" points="415.82,-94.5 425.82,-91 415.82,-87.5 415.82,-94.5"/>
</g>
<!-- m -->
<g id="node6" class="node">
<title>m</title>
<path fill="#dcebe7" stroke="#507085" d="M1070,-162C1070,-162 971,-162 971,-162 965,-162 959,-156 959,-150 959,-150 959,-132 959,-132 959,-126 965,-120 971,-120 971,-120 1070,-120 1070,-120 1076,-120 1082,-126 1082,-132 1082,-132 1082,-150 1082,-150 1082,-156 1076,-162 1070,-162"/>
<text text-anchor="middle" x="1020.5" y="-144.2" font-family="DejaVu Sans" font-size="11.00">Exact public model</text>
<text text-anchor="middle" x="1020.5" y="-132.2" font-family="DejaVu Sans" font-size="11.00">Verify + seed</text>
</g>
<!-- p&#45;&gt;m -->
<g id="edge3" class="edge">
<title>p&#45;&gt;m</title>
<path fill="none" stroke="#507085" d="M765.24,-169.75C814.22,-164.71 880.56,-157.72 939,-151 942.22,-150.63 945.51,-150.25 948.83,-149.85"/>
<polygon fill="#507085" stroke="#507085" points="949.34,-153.32 958.86,-148.65 948.51,-146.37 949.34,-153.32"/>
</g>
<!-- k -->
<g id="node5" class="node">
<title>k</title>
<path fill="#eff4f8" stroke="#507085" d="M894,-124C894,-124 809,-124 809,-124 803,-124 797,-118 797,-112 797,-112 797,-94 797,-94 797,-88 803,-82 809,-82 809,-82 894,-82 894,-82 900,-82 906,-88 906,-94 906,-94 906,-112 906,-112 906,-118 900,-124 894,-124"/>
<text text-anchor="middle" x="851.5" y="-106.2" font-family="DejaVu Sans" font-size="11.00">Creator claims</text>
<text text-anchor="middle" x="851.5" y="-94.2" font-family="DejaVu Sans" font-size="11.00">Secret disclosed</text>
</g>
<!-- s&#45;&gt;k -->
<g id="edge5" class="edge">
<title>s&#45;&gt;k</title>
<path fill="none" stroke="#507085" d="M600.22,-94.07C658.27,-96.14 733.58,-98.83 786.36,-100.71"/>
<polygon fill="#507085" stroke="#507085" points="786.48,-104.22 796.6,-101.08 786.73,-97.22 786.48,-104.22"/>
</g>
<!-- s&#45;&gt;r -->
<g id="edge8" class="edge">
<title>s&#45;&gt;r</title>
<path fill="none" stroke="#507085" d="M600.22,-73.06C654.28,-61.82 723.29,-47.46 775.15,-36.67"/>
<polygon fill="#507085" stroke="#507085" points="775.88,-40.1 784.96,-34.63 774.46,-33.24 775.88,-40.1"/>
<text text-anchor="middle" x="692.5" y="-71.8" font-family="DejaVu Sans" font-size="9.00">no claim; same deadline</text>
</g>
<!-- k&#45;&gt;m -->
<g id="edge6" class="edge">
<title>k&#45;&gt;m</title>
<path fill="none" stroke="#507085" d="M906.26,-115.23C919.89,-118.34 934.75,-121.71 949.07,-124.97"/>
<polygon fill="#507085" stroke="#507085" points="948.36,-128.4 958.88,-127.21 949.91,-121.58 948.36,-128.4"/>
</g>
</g>
</svg>
