<?xml version="1.0" encoding="UTF-8" standalone="no"?>
<!DOCTYPE svg PUBLIC "-//W3C//DTD SVG 1.1//EN"
 "http://www.w3.org/Graphics/SVG/1.1/DTD/svg11.dtd">
<!-- Generated by graphviz version 2.42.4 (0)
 -->
<!-- Title: G Pages: 1 -->
<svg width="811pt" height="117pt"
 viewBox="0.00 0.00 811.00 116.84" xmlns="http://www.w3.org/2000/svg" xmlns:xlink="http://www.w3.org/1999/xlink">
<g id="graph0" class="graph" transform="scale(1 1) rotate(0) translate(18 98.84)">
<title>G</title>
<polygon fill="white" stroke="transparent" points="-18,18 -18,-98.84 793,-98.84 793,18 -18,18"/>
<!-- n -->
<g id="node1" class="node">
<title>n</title>
<path fill="#eff4f8" stroke="#507085" d="M94,-80.84C94,-80.84 12,-80.84 12,-80.84 6,-80.84 0,-74.84 0,-68.84 0,-68.84 0,-56.84 0,-56.84 0,-50.84 6,-44.84 12,-44.84 12,-44.84 94,-44.84 94,-44.84 100,-44.84 106,-50.84 106,-56.84 106,-56.84 106,-68.84 106,-68.84 106,-74.84 100,-80.84 94,-80.84"/>
<text text-anchor="middle" x="53" y="-66.04" font-family="DejaVu Sans" font-size="11.00">Capability need</text>
<text text-anchor="middle" x="53" y="-54.04" font-family="DejaVu Sans" font-size="11.00">No model ID yet</text>
</g>
<!-- b -->
<g id="node2" class="node">
<title>b</title>
<path fill="#eff4f8" stroke="#507085" d="M285,-80.84C285,-80.84 155,-80.84 155,-80.84 149,-80.84 143,-74.84 143,-68.84 143,-68.84 143,-56.84 143,-56.84 143,-50.84 149,-44.84 155,-44.84 155,-44.84 285,-44.84 285,-44.84 291,-44.84 297,-50.84 297,-56.84 297,-56.84 297,-68.84 297,-68.84 297,-74.84 291,-80.84 285,-80.84"/>
<text text-anchor="middle" x="220" y="-66.04" font-family="DejaVu Sans" font-size="11.00">Searchable bounty</text>
<text text-anchor="middle" x="220" y="-54.04" font-family="DejaVu Sans" font-size="11.00">Terms + evaluator policy</text>
</g>
<!-- n&#45;&gt;b -->
<g id="edge1" class="edge">
<title>n&#45;&gt;b</title>
<path fill="none" stroke="#507085" d="M106.21,-62.84C114.64,-62.84 123.57,-62.84 132.56,-62.84"/>
<polygon fill="#507085" stroke="#507085" points="132.72,-66.34 142.72,-62.84 132.72,-59.34 132.72,-66.34"/>
</g>
<!-- f -->
<g id="node3" class="node">
<title>f</title>
<path fill="#eff4f8" stroke="#507085" d="M442,-80.84C442,-80.84 346,-80.84 346,-80.84 340,-80.84 334,-74.84 334,-68.84 334,-68.84 334,-56.84 334,-56.84 334,-50.84 340,-44.84 346,-44.84 346,-44.84 442,-44.84 442,-44.84 448,-44.84 454,-50.84 454,-56.84 454,-56.84 454,-68.84 454,-68.84 454,-74.84 448,-80.84 442,-80.84"/>
<text text-anchor="middle" x="394" y="-66.04" font-family="DejaVu Sans" font-size="11.00">Authorized funding</text>
<text text-anchor="middle" x="394" y="-54.04" font-family="DejaVu Sans" font-size="11.00">Confirmed lots</text>
</g>
<!-- b&#45;&gt;f -->
<g id="edge2" class="edge">
<title>b&#45;&gt;f</title>
<path fill="none" stroke="#507085" d="M297.19,-62.84C306.04,-62.84 315.03,-62.84 323.78,-62.84"/>
<polygon fill="#507085" stroke="#507085" points="323.91,-66.34 333.91,-62.84 323.91,-59.34 323.91,-66.34"/>
</g>
<!-- s -->
<g id="node4" class="node">
<title>s</title>
<path fill="#eff4f8" stroke="#507085" d="M607,-80.84C607,-80.84 503,-80.84 503,-80.84 497,-80.84 491,-74.84 491,-68.84 491,-68.84 491,-56.84 491,-56.84 491,-50.84 497,-44.84 503,-44.84 503,-44.84 607,-44.84 607,-44.84 613,-44.84 619,-50.84 619,-56.84 619,-56.84 619,-68.84 619,-68.84 619,-74.84 613,-80.84 607,-80.84"/>
<text text-anchor="middle" x="555" y="-66.04" font-family="DejaVu Sans" font-size="11.00">Candidate + reports</text>
<text text-anchor="middle" x="555" y="-54.04" font-family="DejaVu Sans" font-size="11.00">Accepted award</text>
</g>
<!-- f&#45;&gt;s -->
<g id="edge3" class="edge">
<title>f&#45;&gt;s</title>
<path fill="none" stroke="#507085" d="M454.21,-62.84C462.77,-62.84 471.68,-62.84 480.48,-62.84"/>
<polygon fill="#507085" stroke="#507085" points="480.75,-66.34 490.75,-62.84 480.75,-59.34 480.75,-66.34"/>
</g>
<!-- m -->
<g id="node5" class="node">
<title>m</title>
<path fill="#eff4f8" stroke="#507085" d="M763,-80.84C763,-80.84 668,-80.84 668,-80.84 662,-80.84 656,-74.84 656,-68.84 656,-68.84 656,-56.84 656,-56.84 656,-50.84 662,-44.84 668,-44.84 668,-44.84 763,-44.84 763,-44.84 769,-44.84 775,-50.84 775,-56.84 775,-56.84 775,-68.84 775,-68.84 775,-74.84 769,-80.84 763,-80.84"/>
<text text-anchor="middle" x="715.5" y="-66.04" font-family="DejaVu Sans" font-size="11.00">Public model</text>
<text text-anchor="middle" x="715.5" y="-54.04" font-family="DejaVu Sans" font-size="11.00">Search + local use</text>
</g>
<!-- s&#45;&gt;m -->
<g id="edge4" class="edge">
<title>s&#45;&gt;m</title>
<path fill="none" stroke="#507085" d="M619.1,-62.84C627.85,-62.84 636.87,-62.84 645.72,-62.84"/>
<polygon fill="#507085" stroke="#507085" points="645.99,-66.34 655.99,-62.84 645.99,-59.34 645.99,-66.34"/>
</g>
<!-- m&#45;&gt;n -->
<g id="edge5" class="edge">
<title>m&#45;&gt;n</title>
<path fill="none" stroke="#507085" d="M668.53,-44.72C653.03,-39.34 635.48,-34.04 619,-30.84 411.33,9.51 350.39,10.93 143,-30.84 130.68,-33.32 117.77,-37.18 105.73,-41.37"/>
<polygon fill="#507085" stroke="#507085" points="104.5,-38.09 96.28,-44.78 106.87,-44.67 104.5,-38.09"/>
<text text-anchor="middle" x="394" y="-6.64" font-family="DejaVu Sans" font-size="9.00">next capability gap</text>
</g>
</g>
</svg>
